<?xml version="1.0" encoding="utf-8"?>
<!-- Generator: Adobe Illustrator 23.0.3, SVG Export Plug-In . SVG Version: 6.00 Build 0)  -->
<svg version="1.1" id="Layer_1" xmlns="http://www.w3.org/2000/svg" xmlns:xlink="http://www.w3.org/1999/xlink" x="0px" y="0px"
	 viewBox="0 0 1200 1200" enable-background="new 0 0 1200 1200" xml:space="preserve">
<g>
	<path fill="#573325" d="M1084.987,1150c-61.181-5.945-120.101-10.595-178.692-17.891c-23.508-2.927-46.293-11.663-69.4-17.781
		c-1.358-0.359-2.628-1.049-3.983-1.422c-105.11-28.903-201.617-79.875-303.006-118.333c-15.689-5.951-30.763-14.03-45.212-22.649
		c-43.566-25.988-87.361-51.687-129.84-79.382C252.427,825.765,164.151,743.731,90.521,645.753
		c-27.143-36.116-33.628-74.303-17.4-115.171c19.879-50.064,32.159-102.08,45.351-153.995c4.842-19.056,10.651-38.38,19.5-55.815
		c39.52-77.864,77.136-156.781,122.449-231.558c6.391-10.547,15.228-20.493,25.057-27.898c21.507-16.204,38.045-15.554,55.571,5.51
		c47.813,57.462,109.638,97.09,171.603,135.94c90.078,56.478,185.925,101.187,290.867,122.456
		c72.008,14.594,145.019,21.242,218.675,16.393c28.125-1.851,56.211-4.43,84.358-5.82c21.862-1.079,30.147,5.732,29.021,25.983
		c-5.783,103.979,3.352,208.99-21.475,311.702c-2.955,12.224-3.712,25.14-4.157,37.783c-3.075,87.351-5.293,174.734-8.821,262.066
		c-2.161,53.507-6.072,106.944-9.501,160.395C1091.37,1137.577,1088.639,1141.271,1084.987,1150z M570.892,784.386
		c-32.887-45.297-67.673-91.479-93.147-143.359c-13.841-28.19-20.719-59.187,1.142-85.93c-7.379-39.072-25.1-70.901-42.157-103.394
		c-26.173-49.861-47.781-102.184-75.148-151.334c-32.556-58.469-58.589-118.546-67.627-185.288
		c-0.849-6.269-0.18-14.59-11.476-16.789c-2.904,3.619-7.011,7.339-9.416,11.947c-37.118,71.145-74.925,141.956-110.449,213.893
		c-11.713,23.719-18.103,50.206-25.673,75.799c-11.583,39.159-17.688,80.593-34.117,117.502
		c-21.808,48.995-15.291,89.788,18.043,128.992c3.647,4.288,6.777,9.014,10.4,13.325c71.21,84.706,152.799,157.851,246.347,216.981
		c73.746,46.614,146.324,95.831,230.945,122.06c4.009,1.243,7.757,3.356,11.591,5.138c62.639,29.106,125.412,57.824,192.631,75.267
		c9.503,2.465,18.55,6.694,27.794,10.146c70.888,26.473,144.903,32.375,220.869,35.872c7.761-52.087,19.664-101.104,21.167-152.046
		c2.657-90.118,7.046-180.19,11.391-270.248c0.947-19.642,4.543-39.175,7.276-58.709c7.232-51.688,12.976-103.419,11.894-155.801
		c-0.61-29.538,1.204-59.12,1.568-88.687c0.098-7.885-1.121-15.786-1.978-26.803c-7.93,5.219-12.916,7.746-17,11.307
		c-31.834,27.765-63.717,55.48-95.165,83.678c-86.302,77.383-180.4,144.608-277.406,207.371
		c-34.467,22.3-69.076,40.957-92.844,76.644C618.623,769.522,600.097,785.782,570.892,784.386z M1083.836,369.232
		c-7.583-3.567-10.032-5.758-12.374-5.647c-12.635,0.594-25.266,1.518-37.855,2.767c-72.016,7.144-143.815,3.37-214.472-10.445
		c-118.841-23.239-228.55-70.637-329.421-137.063c-53.908-35.5-108.768-70.561-151.955-120.073c-6.203-7.11-14.38-12.5-24.79-21.366
		c-0.837,8.673-2.522,13.998-1.61,18.834c3.651,19.351,6.611,39.029,12.57,57.711c14.094,44.188,25.922,89.702,45.733,131.315
		c25.947,54.507,58.023,106.174,88.768,158.292c19.21,32.563,41.18,63.528,48.318,99.529c12.924,5.264,23.679,8.732,33.53,13.917
		c9.611,5.059,18.299,11.873,27.16,17.761c8.5-4.153,14.959-6.902,21.027-10.344c31.451-17.837,68.535-2.737,85.068,30.095
		c9.937,19.731,11.883,40.214,10.539,61.559c-0.433,6.881-2.103,14.248,10.445,18.365
		C831.396,586.144,957.305,480.422,1083.836,369.232z M583.351,764.589c34.687-16.831,51.555-47.366,69.812-77.413
		c15.521-25.545,14.212-50.626,3.76-76.377c-12.102-29.818-30.726-35.369-59.505-18.931c-27.055,15.453-27.036,15.43-50.225-4.477
		c-5.314-4.563-10.322-9.826-16.376-13.086c-5.961-3.209-12.955-5.331-19.7-6.079c-14.177-1.572-25.881,9.087-23.131,22.783
		c3.272,16.296,7.152,33.371,15.159,47.646c23.233,41.424,48.65,81.623,73.306,122.245
		C577.044,761.879,578.747,762.184,583.351,764.589z"/>
	<path fill="#F0D7CB" d="M570.892,784.386c29.205,1.396,47.731-14.865,59.454-32.465c23.768-35.687,58.377-54.344,92.844-76.644
		c97.006-62.763,191.104-129.988,277.406-207.371c31.448-28.198,63.331-55.913,95.165-83.678c4.084-3.562,9.07-6.089,17-11.307
		c0.857,11.017,2.075,18.918,1.978,26.803c-0.365,29.567-2.179,59.149-1.568,88.687c1.083,52.382-4.662,104.113-11.894,155.801
		c-2.733,19.534-6.329,39.066-7.276,58.709c-4.344,90.059-8.734,180.131-11.391,270.248c-1.503,50.942-13.406,99.959-21.167,152.046
		c-75.965-3.496-149.98-9.399-220.869-35.872c-9.244-3.452-18.291-7.681-27.794-10.146c-67.219-17.443-129.993-46.16-192.631-75.267
		c-3.834-1.782-7.582-3.895-11.591-5.138c-84.621-26.229-157.199-75.446-230.945-122.06
		c-93.548-59.13-175.137-132.275-246.347-216.981c-3.623-4.31-6.753-9.036-10.4-13.325c-33.334-39.203-39.851-79.997-18.043-128.992
		c16.429-36.909,22.534-78.343,34.117-117.502c7.57-25.593,13.961-52.08,25.673-75.799
		c35.524-71.937,73.331-142.749,110.449-213.893c2.404-4.609,6.512-8.328,9.416-11.947c11.296,2.199,10.627,10.52,11.476,16.789
		c9.038,66.743,35.072,126.819,67.627,185.288c27.367,49.15,48.975,101.473,75.148,151.334
		c17.056,32.493,34.778,64.322,42.157,103.394c-21.861,26.742-14.983,57.74-1.142,85.93
		C503.219,692.908,538.005,739.089,570.892,784.386z"/>
	<path fill="#F0D7CB" d="M1083.836,369.232c-126.531,111.19-252.44,216.911-389.32,305.207
		c-12.548-4.117-10.879-11.483-10.445-18.365c1.344-21.345-0.602-41.828-10.539-61.559c-16.533-32.831-53.617-47.932-85.068-30.095
		c-6.068,3.441-12.527,6.19-21.027,10.344c-8.86-5.889-17.548-12.702-27.16-17.761c-9.851-5.185-20.606-8.653-33.53-13.917
		c-7.138-36.001-29.108-66.966-48.318-99.529c-30.746-52.118-62.821-103.785-88.768-158.292
		c-19.811-41.614-31.639-87.127-45.733-131.315c-5.958-18.682-8.919-38.359-12.57-57.711c-0.912-4.836,0.774-10.161,1.61-18.834
		c10.411,8.867,18.587,14.256,24.79,21.366c43.187,49.512,98.047,84.573,151.955,120.073
		c100.871,66.427,210.579,113.825,329.421,137.063c70.657,13.815,142.456,17.589,214.472,10.445
		c12.589-1.249,25.221-2.173,37.855-2.767C1073.803,363.475,1076.253,365.665,1083.836,369.232z"/>
	<path fill="#D4322E" d="M583.351,764.589c-4.604-2.405-6.307-2.71-6.9-3.689c-24.656-40.622-50.073-80.821-73.306-122.245
		c-8.007-14.275-11.886-31.349-15.159-47.646c-2.75-13.696,8.954-24.354,23.131-22.783c6.746,0.748,13.739,2.87,19.7,6.079
		c6.054,3.259,11.062,8.523,16.376,13.086c23.189,19.907,23.17,19.93,50.225,4.477c28.779-16.438,47.402-10.887,59.505,18.931
		c10.453,25.751,11.762,50.832-3.76,76.377C634.906,717.223,618.038,747.758,583.351,764.589z"/>
</g>
</svg>
